<mxfile host="app.diagrams.net" modified="2022-11-18T17:29:49.984Z" agent="5.0 (Windows NT 10.0; Win64; x64) AppleWebKit/537.36 (KHTML, like Gecko) Chrome/107.0.0.0 Safari/537.36" etag="ebkL9i5cDZ9wo63b82vJ" version="20.5.3" type="github">
  <diagram id="GWpHcO8PxSd1t0BqxHhr" name="Page-1">
    <mxGraphModel dx="1609" dy="1605" grid="1" gridSize="10" guides="1" tooltips="1" connect="1" arrows="1" fold="1" page="1" pageScale="1" pageWidth="827" pageHeight="1169" math="0" shadow="0">
      <root>
        <mxCell id="0" />
        <mxCell id="1" parent="0" />
        <mxCell id="91BhK31G_ZTgLg-xpiZR-1" value="Referral" style="swimlane;fontStyle=0;align=center;verticalAlign=top;childLayout=stackLayout;horizontal=1;startSize=26;horizontalStack=0;resizeParent=1;resizeLast=0;collapsible=1;marginBottom=0;rounded=0;shadow=0;strokeWidth=1;" vertex="1" parent="1">
          <mxGeometry x="220" y="120" width="160" height="216" as="geometry">
            <mxRectangle x="230" y="140" width="160" height="26" as="alternateBounds" />
          </mxGeometry>
        </mxCell>
        <mxCell id="91BhK31G_ZTgLg-xpiZR-2" value="Reference Number" style="text;align=left;verticalAlign=top;spacingLeft=4;spacingRight=4;overflow=hidden;rotatable=0;points=[[0,0.5],[1,0.5]];portConstraint=eastwest;" vertex="1" parent="91BhK31G_ZTgLg-xpiZR-1">
          <mxGeometry y="26" width="160" height="26" as="geometry" />
        </mxCell>
        <mxCell id="91BhK31G_ZTgLg-xpiZR-3" value="Referral Reason" style="text;align=left;verticalAlign=top;spacingLeft=4;spacingRight=4;overflow=hidden;rotatable=0;points=[[0,0.5],[1,0.5]];portConstraint=eastwest;rounded=0;shadow=0;html=0;" vertex="1" parent="91BhK31G_ZTgLg-xpiZR-1">
          <mxGeometry y="52" width="160" height="26" as="geometry" />
        </mxCell>
        <mxCell id="91BhK31G_ZTgLg-xpiZR-4" value="Urgency" style="text;align=left;verticalAlign=top;spacingLeft=4;spacingRight=4;overflow=hidden;rotatable=0;points=[[0,0.5],[1,0.5]];portConstraint=eastwest;rounded=0;shadow=0;html=0;" vertex="1" parent="91BhK31G_ZTgLg-xpiZR-1">
          <mxGeometry y="78" width="160" height="26" as="geometry" />
        </mxCell>
        <mxCell id="91BhK31G_ZTgLg-xpiZR-5" value="Referral Letter" style="text;align=left;verticalAlign=top;spacingLeft=4;spacingRight=4;overflow=hidden;rotatable=0;points=[[0,0.5],[1,0.5]];portConstraint=eastwest;rounded=0;shadow=0;html=0;" vertex="1" parent="91BhK31G_ZTgLg-xpiZR-1">
          <mxGeometry y="104" width="160" height="26" as="geometry" />
        </mxCell>
        <mxCell id="91BhK31G_ZTgLg-xpiZR-6" value="" style="line;html=1;strokeWidth=1;align=left;verticalAlign=middle;spacingTop=-1;spacingLeft=3;spacingRight=3;rotatable=0;labelPosition=right;points=[];portConstraint=eastwest;" vertex="1" parent="91BhK31G_ZTgLg-xpiZR-1">
          <mxGeometry y="130" width="160" height="8" as="geometry" />
        </mxCell>
        <mxCell id="91BhK31G_ZTgLg-xpiZR-7" value="accept()" style="text;align=left;verticalAlign=top;spacingLeft=4;spacingRight=4;overflow=hidden;rotatable=0;points=[[0,0.5],[1,0.5]];portConstraint=eastwest;" vertex="1" parent="91BhK31G_ZTgLg-xpiZR-1">
          <mxGeometry y="138" width="160" height="26" as="geometry" />
        </mxCell>
        <mxCell id="91BhK31G_ZTgLg-xpiZR-8" value="reject()" style="text;align=left;verticalAlign=top;spacingLeft=4;spacingRight=4;overflow=hidden;rotatable=0;points=[[0,0.5],[1,0.5]];portConstraint=eastwest;" vertex="1" parent="91BhK31G_ZTgLg-xpiZR-1">
          <mxGeometry y="164" width="160" height="26" as="geometry" />
        </mxCell>
        <mxCell id="91BhK31G_ZTgLg-xpiZR-9" value="updateReferralInformation()" style="text;align=left;verticalAlign=top;spacingLeft=4;spacingRight=4;overflow=hidden;rotatable=0;points=[[0,0.5],[1,0.5]];portConstraint=eastwest;" vertex="1" parent="91BhK31G_ZTgLg-xpiZR-1">
          <mxGeometry y="190" width="160" height="26" as="geometry" />
        </mxCell>
        <mxCell id="91BhK31G_ZTgLg-xpiZR-10" value="Advice Request" style="swimlane;fontStyle=0;align=center;verticalAlign=top;childLayout=stackLayout;horizontal=1;startSize=26;horizontalStack=0;resizeParent=1;resizeLast=0;collapsible=1;marginBottom=0;rounded=0;shadow=0;strokeWidth=1;" vertex="1" parent="1">
          <mxGeometry x="120" y="380" width="160" height="40" as="geometry">
            <mxRectangle x="130" y="380" width="160" height="26" as="alternateBounds" />
          </mxGeometry>
        </mxCell>
        <mxCell id="91BhK31G_ZTgLg-xpiZR-11" value="" style="endArrow=block;endSize=10;endFill=0;shadow=0;strokeWidth=1;rounded=0;edgeStyle=elbowEdgeStyle;elbow=vertical;" edge="1" parent="1" source="91BhK31G_ZTgLg-xpiZR-10" target="91BhK31G_ZTgLg-xpiZR-9">
          <mxGeometry width="160" relative="1" as="geometry">
            <mxPoint x="200" y="223" as="sourcePoint" />
            <mxPoint x="300" y="356" as="targetPoint" />
          </mxGeometry>
        </mxCell>
        <mxCell id="91BhK31G_ZTgLg-xpiZR-12" value="Appointment Request" style="swimlane;fontStyle=0;align=center;verticalAlign=top;childLayout=stackLayout;horizontal=1;startSize=26;horizontalStack=0;resizeParent=1;resizeLast=0;collapsible=1;marginBottom=0;rounded=0;shadow=0;strokeWidth=1;" vertex="1" parent="1">
          <mxGeometry x="330" y="380" width="160" height="40" as="geometry">
            <mxRectangle x="340" y="380" width="170" height="26" as="alternateBounds" />
          </mxGeometry>
        </mxCell>
        <mxCell id="91BhK31G_ZTgLg-xpiZR-13" value="Patient" style="swimlane;fontStyle=0;align=center;verticalAlign=top;childLayout=stackLayout;horizontal=1;startSize=26;horizontalStack=0;resizeParent=1;resizeLast=0;collapsible=1;marginBottom=0;rounded=0;shadow=0;strokeWidth=1;" vertex="1" parent="1">
          <mxGeometry x="508" y="120" width="160" height="216" as="geometry">
            <mxRectangle x="550" y="140" width="160" height="26" as="alternateBounds" />
          </mxGeometry>
        </mxCell>
        <mxCell id="91BhK31G_ZTgLg-xpiZR-14" value="Name" style="text;align=left;verticalAlign=top;spacingLeft=4;spacingRight=4;overflow=hidden;rotatable=0;points=[[0,0.5],[1,0.5]];portConstraint=eastwest;" vertex="1" parent="91BhK31G_ZTgLg-xpiZR-13">
          <mxGeometry y="26" width="160" height="26" as="geometry" />
        </mxCell>
        <mxCell id="91BhK31G_ZTgLg-xpiZR-15" value="NHS Number" style="text;align=left;verticalAlign=top;spacingLeft=4;spacingRight=4;overflow=hidden;rotatable=0;points=[[0,0.5],[1,0.5]];portConstraint=eastwest;rounded=0;shadow=0;html=0;" vertex="1" parent="91BhK31G_ZTgLg-xpiZR-13">
          <mxGeometry y="52" width="160" height="26" as="geometry" />
        </mxCell>
        <mxCell id="91BhK31G_ZTgLg-xpiZR-16" value="Date of Birth" style="text;align=left;verticalAlign=top;spacingLeft=4;spacingRight=4;overflow=hidden;rotatable=0;points=[[0,0.5],[1,0.5]];portConstraint=eastwest;rounded=0;shadow=0;html=0;" vertex="1" parent="91BhK31G_ZTgLg-xpiZR-13">
          <mxGeometry y="78" width="160" height="26" as="geometry" />
        </mxCell>
        <mxCell id="91BhK31G_ZTgLg-xpiZR-17" value="Address" style="text;align=left;verticalAlign=top;spacingLeft=4;spacingRight=4;overflow=hidden;rotatable=0;points=[[0,0.5],[1,0.5]];portConstraint=eastwest;rounded=0;shadow=0;html=0;" vertex="1" parent="91BhK31G_ZTgLg-xpiZR-13">
          <mxGeometry y="104" width="160" height="26" as="geometry" />
        </mxCell>
        <mxCell id="91BhK31G_ZTgLg-xpiZR-18" value="Gender" style="text;align=left;verticalAlign=top;spacingLeft=4;spacingRight=4;overflow=hidden;rotatable=0;points=[[0,0.5],[1,0.5]];portConstraint=eastwest;rounded=0;shadow=0;html=0;" vertex="1" parent="91BhK31G_ZTgLg-xpiZR-13">
          <mxGeometry y="130" width="160" height="26" as="geometry" />
        </mxCell>
        <mxCell id="91BhK31G_ZTgLg-xpiZR-19" value="Postcode" style="text;align=left;verticalAlign=top;spacingLeft=4;spacingRight=4;overflow=hidden;rotatable=0;points=[[0,0.5],[1,0.5]];portConstraint=eastwest;rounded=0;shadow=0;html=0;" vertex="1" parent="91BhK31G_ZTgLg-xpiZR-13">
          <mxGeometry y="156" width="160" height="26" as="geometry" />
        </mxCell>
        <mxCell id="91BhK31G_ZTgLg-xpiZR-20" value="" style="line;html=1;strokeWidth=1;align=left;verticalAlign=middle;spacingTop=-1;spacingLeft=3;spacingRight=3;rotatable=0;labelPosition=right;points=[];portConstraint=eastwest;" vertex="1" parent="91BhK31G_ZTgLg-xpiZR-13">
          <mxGeometry y="182" width="160" height="8" as="geometry" />
        </mxCell>
        <mxCell id="91BhK31G_ZTgLg-xpiZR-21" value="verifyDemographics()" style="text;align=left;verticalAlign=top;spacingLeft=4;spacingRight=4;overflow=hidden;rotatable=0;points=[[0,0.5],[1,0.5]];portConstraint=eastwest;" vertex="1" parent="91BhK31G_ZTgLg-xpiZR-13">
          <mxGeometry y="190" width="160" height="26" as="geometry" />
        </mxCell>
        <mxCell id="91BhK31G_ZTgLg-xpiZR-22" value="Consultant" style="swimlane;fontStyle=0;align=center;verticalAlign=top;childLayout=stackLayout;horizontal=1;startSize=26;horizontalStack=0;resizeParent=1;resizeLast=0;collapsible=1;marginBottom=0;rounded=0;shadow=0;strokeWidth=1;" vertex="1" parent="1">
          <mxGeometry x="-302.08" y="135" width="160" height="145" as="geometry">
            <mxRectangle x="340" y="380" width="170" height="26" as="alternateBounds" />
          </mxGeometry>
        </mxCell>
        <mxCell id="91BhK31G_ZTgLg-xpiZR-23" value="Name" style="text;align=left;verticalAlign=top;spacingLeft=4;spacingRight=4;overflow=hidden;rotatable=0;points=[[0,0.5],[1,0.5]];portConstraint=eastwest;" vertex="1" parent="91BhK31G_ZTgLg-xpiZR-22">
          <mxGeometry y="26" width="160" height="26" as="geometry" />
        </mxCell>
        <mxCell id="91BhK31G_ZTgLg-xpiZR-24" value="Location" style="text;align=left;verticalAlign=top;spacingLeft=4;spacingRight=4;overflow=hidden;rotatable=0;points=[[0,0.5],[1,0.5]];portConstraint=eastwest;" vertex="1" parent="91BhK31G_ZTgLg-xpiZR-22">
          <mxGeometry y="52" width="160" height="28" as="geometry" />
        </mxCell>
        <mxCell id="91BhK31G_ZTgLg-xpiZR-25" value="Professional Role" style="text;align=left;verticalAlign=top;spacingLeft=4;spacingRight=4;overflow=hidden;rotatable=0;points=[[0,0.5],[1,0.5]];portConstraint=eastwest;" vertex="1" parent="91BhK31G_ZTgLg-xpiZR-22">
          <mxGeometry y="80" width="160" height="26" as="geometry" />
        </mxCell>
        <mxCell id="91BhK31G_ZTgLg-xpiZR-26" value="Professional Code" style="text;align=left;verticalAlign=top;spacingLeft=4;spacingRight=4;overflow=hidden;rotatable=0;points=[[0,0.5],[1,0.5]];portConstraint=eastwest;" vertex="1" parent="91BhK31G_ZTgLg-xpiZR-22">
          <mxGeometry y="106" width="160" height="26" as="geometry" />
        </mxCell>
        <mxCell id="91BhK31G_ZTgLg-xpiZR-27" value="1..*" style="endArrow=open;html=1;endSize=12;startArrow=diamondThin;startSize=14;startFill=0;edgeStyle=orthogonalEdgeStyle;align=left;verticalAlign=bottom;rounded=0;exitX=0;exitY=0.5;exitDx=0;exitDy=0;" edge="1" parent="1" source="91BhK31G_ZTgLg-xpiZR-39">
          <mxGeometry x="-0.4" relative="1" as="geometry">
            <mxPoint x="-430.0000000000001" y="217.00400000000002" as="sourcePoint" />
            <mxPoint x="-140" y="226" as="targetPoint" />
            <mxPoint as="offset" />
          </mxGeometry>
        </mxCell>
        <mxCell id="91BhK31G_ZTgLg-xpiZR-28" value="1" style="endArrow=open;html=1;endSize=12;startArrow=diamondThin;startSize=14;startFill=1;edgeStyle=orthogonalEdgeStyle;align=left;verticalAlign=bottom;rounded=0;entryX=0;entryY=0.5;entryDx=0;entryDy=0;exitX=1;exitY=0.5;exitDx=0;exitDy=0;" edge="1" parent="1" source="91BhK31G_ZTgLg-xpiZR-4" target="91BhK31G_ZTgLg-xpiZR-16">
          <mxGeometry x="-1" y="3" relative="1" as="geometry">
            <mxPoint x="380" y="214.5" as="sourcePoint" />
            <mxPoint x="510" y="215" as="targetPoint" />
          </mxGeometry>
        </mxCell>
        <mxCell id="91BhK31G_ZTgLg-xpiZR-29" value="Referrer" style="swimlane;fontStyle=0;align=center;verticalAlign=top;childLayout=stackLayout;horizontal=1;startSize=26;horizontalStack=0;resizeParent=1;resizeLast=0;collapsible=1;marginBottom=0;rounded=0;shadow=0;strokeWidth=1;" vertex="1" parent="1">
          <mxGeometry x="220" y="-140" width="160" height="186" as="geometry">
            <mxRectangle x="130" y="380" width="160" height="26" as="alternateBounds" />
          </mxGeometry>
        </mxCell>
        <mxCell id="91BhK31G_ZTgLg-xpiZR-30" value="Name" style="text;align=left;verticalAlign=top;spacingLeft=4;spacingRight=4;overflow=hidden;rotatable=0;points=[[0,0.5],[1,0.5]];portConstraint=eastwest;" vertex="1" parent="91BhK31G_ZTgLg-xpiZR-29">
          <mxGeometry y="26" width="160" height="26" as="geometry" />
        </mxCell>
        <mxCell id="91BhK31G_ZTgLg-xpiZR-31" value="Professional Role" style="text;align=left;verticalAlign=top;spacingLeft=4;spacingRight=4;overflow=hidden;rotatable=0;points=[[0,0.5],[1,0.5]];portConstraint=eastwest;" vertex="1" parent="91BhK31G_ZTgLg-xpiZR-29">
          <mxGeometry y="52" width="160" height="26" as="geometry" />
        </mxCell>
        <mxCell id="91BhK31G_ZTgLg-xpiZR-32" value="Professional Code" style="text;align=left;verticalAlign=top;spacingLeft=4;spacingRight=4;overflow=hidden;rotatable=0;points=[[0,0.5],[1,0.5]];portConstraint=eastwest;rounded=0;shadow=0;html=0;" vertex="1" parent="91BhK31G_ZTgLg-xpiZR-29">
          <mxGeometry y="78" width="160" height="26" as="geometry" />
        </mxCell>
        <mxCell id="91BhK31G_ZTgLg-xpiZR-33" value="Address" style="text;align=left;verticalAlign=top;spacingLeft=4;spacingRight=4;overflow=hidden;rotatable=0;points=[[0,0.5],[1,0.5]];portConstraint=eastwest;" vertex="1" parent="91BhK31G_ZTgLg-xpiZR-29">
          <mxGeometry y="104" width="160" height="26" as="geometry" />
        </mxCell>
        <mxCell id="91BhK31G_ZTgLg-xpiZR-34" value="Phone Number" style="text;align=left;verticalAlign=top;spacingLeft=4;spacingRight=4;overflow=hidden;rotatable=0;points=[[0,0.5],[1,0.5]];portConstraint=eastwest;" vertex="1" parent="91BhK31G_ZTgLg-xpiZR-29">
          <mxGeometry y="130" width="160" height="26" as="geometry" />
        </mxCell>
        <mxCell id="91BhK31G_ZTgLg-xpiZR-35" value="Email" style="text;align=left;verticalAlign=top;spacingLeft=4;spacingRight=4;overflow=hidden;rotatable=0;points=[[0,0.5],[1,0.5]];portConstraint=eastwest;" vertex="1" parent="91BhK31G_ZTgLg-xpiZR-29">
          <mxGeometry y="156" width="160" height="26" as="geometry" />
        </mxCell>
        <mxCell id="91BhK31G_ZTgLg-xpiZR-36" value="Referred to Service" style="swimlane;fontStyle=0;align=center;verticalAlign=top;childLayout=stackLayout;horizontal=1;startSize=26;horizontalStack=0;resizeParent=1;resizeLast=0;collapsible=1;marginBottom=0;rounded=0;shadow=0;strokeWidth=1;" vertex="1" parent="1">
          <mxGeometry x="-40" y="135" width="160" height="160" as="geometry">
            <mxRectangle x="340" y="380" width="170" height="26" as="alternateBounds" />
          </mxGeometry>
        </mxCell>
        <mxCell id="91BhK31G_ZTgLg-xpiZR-37" value="Speciality" style="text;align=left;verticalAlign=top;spacingLeft=4;spacingRight=4;overflow=hidden;rotatable=0;points=[[0,0.5],[1,0.5]];portConstraint=eastwest;" vertex="1" parent="91BhK31G_ZTgLg-xpiZR-36">
          <mxGeometry y="26" width="160" height="26" as="geometry" />
        </mxCell>
        <mxCell id="91BhK31G_ZTgLg-xpiZR-38" value="Sub-speciality" style="text;align=left;verticalAlign=top;spacingLeft=4;spacingRight=4;overflow=hidden;rotatable=0;points=[[0,0.5],[1,0.5]];portConstraint=eastwest;" vertex="1" parent="91BhK31G_ZTgLg-xpiZR-36">
          <mxGeometry y="52" width="160" height="26" as="geometry" />
        </mxCell>
        <mxCell id="91BhK31G_ZTgLg-xpiZR-39" value="Address" style="text;align=left;verticalAlign=top;spacingLeft=4;spacingRight=4;overflow=hidden;rotatable=0;points=[[0,0.5],[1,0.5]];portConstraint=eastwest;" vertex="1" parent="91BhK31G_ZTgLg-xpiZR-36">
          <mxGeometry y="78" width="160" height="26" as="geometry" />
        </mxCell>
        <mxCell id="91BhK31G_ZTgLg-xpiZR-40" value="Phone Number" style="text;align=left;verticalAlign=top;spacingLeft=4;spacingRight=4;overflow=hidden;rotatable=0;points=[[0,0.5],[1,0.5]];portConstraint=eastwest;" vertex="1" parent="91BhK31G_ZTgLg-xpiZR-36">
          <mxGeometry y="104" width="160" height="26" as="geometry" />
        </mxCell>
        <mxCell id="91BhK31G_ZTgLg-xpiZR-41" value="Email" style="text;align=left;verticalAlign=top;spacingLeft=4;spacingRight=4;overflow=hidden;rotatable=0;points=[[0,0.5],[1,0.5]];portConstraint=eastwest;" vertex="1" parent="91BhK31G_ZTgLg-xpiZR-36">
          <mxGeometry y="130" width="160" height="26" as="geometry" />
        </mxCell>
        <mxCell id="91BhK31G_ZTgLg-xpiZR-42" value="1" style="endArrow=open;html=1;endSize=12;startArrow=diamondThin;startSize=14;startFill=1;edgeStyle=orthogonalEdgeStyle;align=left;verticalAlign=bottom;rounded=0;entryX=0.5;entryY=1;entryDx=0;entryDy=0;exitX=0.5;exitY=0;exitDx=0;exitDy=0;" edge="1" parent="1" source="91BhK31G_ZTgLg-xpiZR-1" target="91BhK31G_ZTgLg-xpiZR-29">
          <mxGeometry x="-0.6" y="10" relative="1" as="geometry">
            <mxPoint x="300" y="110" as="sourcePoint" />
            <mxPoint x="418" y="120" as="targetPoint" />
            <mxPoint as="offset" />
          </mxGeometry>
        </mxCell>
        <mxCell id="91BhK31G_ZTgLg-xpiZR-43" value="A Consultant may belong to more than one Service, but will be based at one Location" style="shape=note;size=20;whiteSpace=wrap;html=1;" vertex="1" parent="1">
          <mxGeometry x="-272.08" y="-20" width="100" height="100" as="geometry" />
        </mxCell>
        <mxCell id="91BhK31G_ZTgLg-xpiZR-44" value="" style="endArrow=none;dashed=1;html=1;rounded=0;exitX=0.5;exitY=0;exitDx=0;exitDy=0;entryX=0.5;entryY=1;entryDx=0;entryDy=0;entryPerimeter=0;" edge="1" parent="1" source="91BhK31G_ZTgLg-xpiZR-22" target="91BhK31G_ZTgLg-xpiZR-43">
          <mxGeometry width="50" height="50" relative="1" as="geometry">
            <mxPoint x="-250" y="110" as="sourcePoint" />
            <mxPoint x="-200" y="60" as="targetPoint" />
          </mxGeometry>
        </mxCell>
        <mxCell id="91BhK31G_ZTgLg-xpiZR-45" value="&lt;i&gt;&lt;b&gt;Notes&lt;/b&gt; may be added for additional context&lt;/i&gt;" style="text;html=1;strokeColor=none;fillColor=none;align=center;verticalAlign=middle;whiteSpace=wrap;rounded=0;fontColor=#0066CC;" vertex="1" parent="1">
          <mxGeometry x="-220" y="90" width="162" height="30" as="geometry" />
        </mxCell>
        <mxCell id="91BhK31G_ZTgLg-xpiZR-46" value="&lt;i style=&quot;&quot;&gt;&lt;b&gt;Multiples &lt;/b&gt;of one entity can relate to another&lt;/i&gt;" style="text;html=1;strokeColor=none;fillColor=none;align=center;verticalAlign=middle;whiteSpace=wrap;rounded=0;fontColor=#0066CC;" vertex="1" parent="1">
          <mxGeometry x="-118.08000000000001" y="225" width="60.08" height="80" as="geometry" />
        </mxCell>
        <mxCell id="91BhK31G_ZTgLg-xpiZR-47" value="&lt;i style=&quot;&quot;&gt;&lt;b&gt;Aggregations &lt;/b&gt;are records which are part of another&lt;/i&gt;" style="text;html=1;strokeColor=none;fillColor=none;align=center;verticalAlign=middle;whiteSpace=wrap;rounded=0;fontColor=#0066CC;" vertex="1" parent="1">
          <mxGeometry x="140" y="215" width="60" height="80" as="geometry" />
        </mxCell>
        <mxCell id="91BhK31G_ZTgLg-xpiZR-48" value="1" style="endArrow=open;html=1;endSize=12;startArrow=diamondThin;startSize=14;startFill=0;edgeStyle=orthogonalEdgeStyle;align=left;verticalAlign=bottom;rounded=0;fontColor=#000000;exitX=0;exitY=0.5;exitDx=0;exitDy=0;entryX=1.023;entryY=0.923;entryDx=0;entryDy=0;entryPerimeter=0;" edge="1" parent="1" source="91BhK31G_ZTgLg-xpiZR-4" target="91BhK31G_ZTgLg-xpiZR-38">
          <mxGeometry x="-0.3771" relative="1" as="geometry">
            <mxPoint x="100" y="70" as="sourcePoint" />
            <mxPoint x="130" y="210" as="targetPoint" />
            <mxPoint as="offset" />
          </mxGeometry>
        </mxCell>
        <mxCell id="91BhK31G_ZTgLg-xpiZR-49" value="&lt;i style=&quot;&quot;&gt;&lt;b&gt;Compositions &lt;/b&gt;are records which must co-exist in the system&lt;/i&gt;" style="text;html=1;strokeColor=none;fillColor=none;align=center;verticalAlign=middle;whiteSpace=wrap;rounded=0;fontColor=#0066CC;" vertex="1" parent="1">
          <mxGeometry x="310" y="40" width="120" height="80" as="geometry" />
        </mxCell>
        <mxCell id="91BhK31G_ZTgLg-xpiZR-50" value="&lt;i style=&quot;&quot;&gt;&lt;b&gt;Generalistions&amp;nbsp;&lt;/b&gt;indicate that one class is a sub-class of another&lt;/i&gt;" style="text;html=1;strokeColor=none;fillColor=none;align=center;verticalAlign=middle;whiteSpace=wrap;rounded=0;fontColor=#0066CC;" vertex="1" parent="1">
          <mxGeometry x="255" y="390" width="90" height="120" as="geometry" />
        </mxCell>
        <mxCell id="91BhK31G_ZTgLg-xpiZR-51" value="" style="endArrow=none;html=1;rounded=0;entryX=0.5;entryY=0;entryDx=0;entryDy=0;" edge="1" parent="1" target="91BhK31G_ZTgLg-xpiZR-12">
          <mxGeometry width="50" height="50" relative="1" as="geometry">
            <mxPoint x="300" y="358" as="sourcePoint" />
            <mxPoint x="430" y="360" as="targetPoint" />
            <Array as="points">
              <mxPoint x="410" y="358" />
            </Array>
          </mxGeometry>
        </mxCell>
      </root>
    </mxGraphModel>
  </diagram>
</mxfile>
